<mxfile host="app.diagrams.net" agent="Mozilla/5.0 (Windows NT 10.0; Win64; x64) AppleWebKit/537.36 (KHTML, like Gecko) Chrome/140.0.0.0 Safari/537.36" version="28.2.3">
  <diagram name="C3 Component Diagram" id="ab2VT7L2AfFQVtgCCv4d">
    <mxGraphModel dx="2404" dy="759" grid="1" gridSize="10" guides="1" tooltips="1" connect="1" arrows="1" fold="1" page="1" pageScale="1" pageWidth="850" pageHeight="1100" math="0" shadow="0">
      <root>
        <mxCell id="0" />
        <mxCell id="1" parent="0" />
        <mxCell id="7wnWjVAu8Bd_MvjdbCye-48" value="" style="rounded=0;whiteSpace=wrap;html=1;fillColor=light-dark(#f5d18a, #9a5800);fontColor=#000000;strokeColor=light-dark(#f3ce96, #c17f1f);" vertex="1" parent="1">
          <mxGeometry x="500" y="598" width="510" height="562" as="geometry" />
        </mxCell>
        <mxCell id="7wnWjVAu8Bd_MvjdbCye-46" value="" style="rounded=0;whiteSpace=wrap;html=1;fillColor=light-dark(#bff28c, #4a890c);fontColor=#ffffff;strokeColor=#2D7600;" vertex="1" parent="1">
          <mxGeometry x="-220" y="598" width="510" height="562" as="geometry" />
        </mxCell>
        <mxCell id="7wnWjVAu8Bd_MvjdbCye-1" value="API" style="shape=rectangle;fillColor=#dae8fc;strokeColor=#6c8ebf;" vertex="1" parent="1">
          <mxGeometry x="-130" y="40" width="1220" height="40" as="geometry" />
        </mxCell>
        <mxCell id="7wnWjVAu8Bd_MvjdbCye-2" value="    Registrations" style="shape=component;fillColor=#cce5ff;" vertex="1" parent="1">
          <mxGeometry x="-130" y="170" width="140" height="60" as="geometry" />
        </mxCell>
        <mxCell id="7wnWjVAu8Bd_MvjdbCye-3" value="       User Access" style="shape=component;fillColor=#d5e8d4;" vertex="1" parent="1">
          <mxGeometry x="140" y="170" width="140" height="60" as="geometry" />
        </mxCell>
        <mxCell id="7wnWjVAu8Bd_MvjdbCye-4" value="Meetings" style="shape=component;fillColor=#ffe6cc;" vertex="1" parent="1">
          <mxGeometry x="390" y="120" width="140" height="60" as="geometry" />
        </mxCell>
        <mxCell id="7wnWjVAu8Bd_MvjdbCye-5" value="Payments" style="shape=component;fillColor=#f8cecc;" vertex="1" parent="1">
          <mxGeometry x="810" y="110" width="120" height="60" as="geometry" />
        </mxCell>
        <mxCell id="7wnWjVAu8Bd_MvjdbCye-6" value="        Registrations Data" style="shape=component;fillColor=#cce5ff;" vertex="1" parent="1">
          <mxGeometry x="-130" y="300" width="150" height="60" as="geometry" />
        </mxCell>
        <mxCell id="7wnWjVAu8Bd_MvjdbCye-7" value="       User Access Data" style="shape=component;fillColor=#d5e8d4;" vertex="1" parent="1">
          <mxGeometry x="130" y="290" width="140" height="60" as="geometry" />
        </mxCell>
        <mxCell id="7wnWjVAu8Bd_MvjdbCye-8" value="   Meetings Data" style="shape=component;fillColor=#ffe6cc;" vertex="1" parent="1">
          <mxGeometry x="320" y="220" width="140" height="60" as="geometry" />
        </mxCell>
        <mxCell id="7wnWjVAu8Bd_MvjdbCye-9" value="Payments Data" style="shape=component;fillColor=#f8cecc;" vertex="1" parent="1">
          <mxGeometry x="780" y="230" width="120" height="60" as="geometry" />
        </mxCell>
        <mxCell id="7wnWjVAu8Bd_MvjdbCye-10" value="In-Memory Events Bus" style="shape=rectangle;fillColor=#e1d5e7;strokeColor=#9673a6;" vertex="1" parent="1">
          <mxGeometry x="-130" y="460" width="1240" height="40" as="geometry" />
        </mxCell>
        <mxCell id="7wnWjVAu8Bd_MvjdbCye-13" value="Administration" style="shape=component;fillColor=#d80073;strokeColor=#A50040;fontColor=#ffffff;" vertex="1" parent="1">
          <mxGeometry x="620" y="120" width="140" height="60" as="geometry" />
        </mxCell>
        <mxCell id="7wnWjVAu8Bd_MvjdbCye-14" value="      Administration Data" style="shape=component;fillColor=#d80073;strokeColor=#A50040;fontColor=#ffffff;" vertex="1" parent="1">
          <mxGeometry x="570" y="230" width="140" height="60" as="geometry" />
        </mxCell>
        <mxCell id="7wnWjVAu8Bd_MvjdbCye-15" value="" style="endArrow=classic;html=1;rounded=0;dashed=1;exitX=0.169;exitY=1.095;exitDx=0;exitDy=0;exitPerimeter=0;entryX=0.425;entryY=0.003;entryDx=0;entryDy=0;entryPerimeter=0;" edge="1" parent="1" source="7wnWjVAu8Bd_MvjdbCye-1" target="7wnWjVAu8Bd_MvjdbCye-3">
          <mxGeometry width="50" height="50" relative="1" as="geometry">
            <mxPoint x="400" y="420" as="sourcePoint" />
            <mxPoint x="184" y="150" as="targetPoint" />
          </mxGeometry>
        </mxCell>
        <mxCell id="7wnWjVAu8Bd_MvjdbCye-17" value="" style="endArrow=classic;html=1;rounded=0;dashed=1;exitX=0.5;exitY=1;exitDx=0;exitDy=0;" edge="1" parent="1" source="7wnWjVAu8Bd_MvjdbCye-1">
          <mxGeometry width="50" height="50" relative="1" as="geometry">
            <mxPoint x="468" y="90" as="sourcePoint" />
            <mxPoint x="465" y="120" as="targetPoint" />
          </mxGeometry>
        </mxCell>
        <mxCell id="7wnWjVAu8Bd_MvjdbCye-18" value="" style="endArrow=classic;html=1;rounded=0;dashed=1;" edge="1" parent="1">
          <mxGeometry width="50" height="50" relative="1" as="geometry">
            <mxPoint x="660" y="84" as="sourcePoint" />
            <mxPoint x="660" y="120" as="targetPoint" />
          </mxGeometry>
        </mxCell>
        <mxCell id="7wnWjVAu8Bd_MvjdbCye-19" value="" style="endArrow=classic;html=1;rounded=0;dashed=1;exitX=0.976;exitY=0.935;exitDx=0;exitDy=0;exitPerimeter=0;entryX=0.5;entryY=0;entryDx=0;entryDy=0;" edge="1" parent="1" source="7wnWjVAu8Bd_MvjdbCye-1" target="7wnWjVAu8Bd_MvjdbCye-5">
          <mxGeometry width="50" height="50" relative="1" as="geometry">
            <mxPoint x="500" y="220" as="sourcePoint" />
            <mxPoint x="501" y="289" as="targetPoint" />
          </mxGeometry>
        </mxCell>
        <mxCell id="7wnWjVAu8Bd_MvjdbCye-21" value="" style="endArrow=classic;html=1;rounded=0;dashed=1;exitX=1;exitY=0.5;exitDx=0;exitDy=0;" edge="1" parent="1" source="7wnWjVAu8Bd_MvjdbCye-2" target="7wnWjVAu8Bd_MvjdbCye-3">
          <mxGeometry width="50" height="50" relative="1" as="geometry">
            <mxPoint x="180" y="120" as="sourcePoint" />
            <mxPoint x="180" y="186" as="targetPoint" />
          </mxGeometry>
        </mxCell>
        <mxCell id="7wnWjVAu8Bd_MvjdbCye-22" value="" style="endArrow=classic;html=1;rounded=0;dashed=1;exitX=0.5;exitY=1;exitDx=0;exitDy=0;entryX=0.5;entryY=0;entryDx=0;entryDy=0;" edge="1" parent="1" source="7wnWjVAu8Bd_MvjdbCye-2" target="7wnWjVAu8Bd_MvjdbCye-6">
          <mxGeometry width="50" height="50" relative="1" as="geometry">
            <mxPoint x="80" y="220" as="sourcePoint" />
            <mxPoint x="-60" y="290" as="targetPoint" />
          </mxGeometry>
        </mxCell>
        <mxCell id="7wnWjVAu8Bd_MvjdbCye-23" value="" style="endArrow=classic;html=1;rounded=0;dashed=1;exitX=0.982;exitY=1.052;exitDx=0;exitDy=0;exitPerimeter=0;entryX=0.171;entryY=-0.018;entryDx=0;entryDy=0;entryPerimeter=0;" edge="1" parent="1" source="7wnWjVAu8Bd_MvjdbCye-2" target="7wnWjVAu8Bd_MvjdbCye-10">
          <mxGeometry width="50" height="50" relative="1" as="geometry">
            <mxPoint x="70" y="270" as="sourcePoint" />
            <mxPoint x="70" y="450" as="targetPoint" />
          </mxGeometry>
        </mxCell>
        <mxCell id="7wnWjVAu8Bd_MvjdbCye-25" value="" style="endArrow=classic;html=1;rounded=0;dashed=1;exitX=0.5;exitY=1;exitDx=0;exitDy=0;entryX=0.58;entryY=0.012;entryDx=0;entryDy=0;entryPerimeter=0;" edge="1" parent="1" source="7wnWjVAu8Bd_MvjdbCye-3" target="7wnWjVAu8Bd_MvjdbCye-7">
          <mxGeometry width="50" height="50" relative="1" as="geometry">
            <mxPoint x="320" y="320" as="sourcePoint" />
            <mxPoint x="320" y="386" as="targetPoint" />
          </mxGeometry>
        </mxCell>
        <mxCell id="7wnWjVAu8Bd_MvjdbCye-26" value="" style="endArrow=classic;html=1;rounded=0;dashed=1;exitX=1.004;exitY=1.017;exitDx=0;exitDy=0;exitPerimeter=0;entryX=0.385;entryY=-0.072;entryDx=0;entryDy=0;entryPerimeter=0;" edge="1" parent="1" source="7wnWjVAu8Bd_MvjdbCye-3" target="7wnWjVAu8Bd_MvjdbCye-10">
          <mxGeometry width="50" height="50" relative="1" as="geometry">
            <mxPoint x="250" y="110" as="sourcePoint" />
            <mxPoint x="269" y="460" as="targetPoint" />
          </mxGeometry>
        </mxCell>
        <mxCell id="7wnWjVAu8Bd_MvjdbCye-27" value="" style="endArrow=classic;html=1;rounded=0;dashed=1;exitX=0.917;exitY=0.961;exitDx=0;exitDy=0;exitPerimeter=0;entryX=0.592;entryY=-0.072;entryDx=0;entryDy=0;entryPerimeter=0;" edge="1" parent="1" source="7wnWjVAu8Bd_MvjdbCye-4" target="7wnWjVAu8Bd_MvjdbCye-10">
          <mxGeometry width="50" height="50" relative="1" as="geometry">
            <mxPoint x="370" y="360" as="sourcePoint" />
            <mxPoint x="540" y="450" as="targetPoint" />
          </mxGeometry>
        </mxCell>
        <mxCell id="7wnWjVAu8Bd_MvjdbCye-28" value="" style="endArrow=classic;html=1;rounded=0;dashed=1;exitX=0.452;exitY=1.05;exitDx=0;exitDy=0;exitPerimeter=0;" edge="1" parent="1" source="7wnWjVAu8Bd_MvjdbCye-4" target="7wnWjVAu8Bd_MvjdbCye-8">
          <mxGeometry width="50" height="50" relative="1" as="geometry">
            <mxPoint x="450" y="200" as="sourcePoint" />
            <mxPoint x="450" y="266" as="targetPoint" />
          </mxGeometry>
        </mxCell>
        <mxCell id="7wnWjVAu8Bd_MvjdbCye-29" value="" style="endArrow=classic;html=1;rounded=0;dashed=1;exitX=0.75;exitY=1;exitDx=0;exitDy=0;entryX=0.812;entryY=0;entryDx=0;entryDy=0;entryPerimeter=0;" edge="1" parent="1" source="7wnWjVAu8Bd_MvjdbCye-13" target="7wnWjVAu8Bd_MvjdbCye-10">
          <mxGeometry width="50" height="50" relative="1" as="geometry">
            <mxPoint x="600" y="310" as="sourcePoint" />
            <mxPoint x="600" y="376" as="targetPoint" />
          </mxGeometry>
        </mxCell>
        <mxCell id="7wnWjVAu8Bd_MvjdbCye-30" value="" style="endArrow=classic;html=1;rounded=0;dashed=1;exitX=0.44;exitY=0.961;exitDx=0;exitDy=0;exitPerimeter=0;" edge="1" parent="1" source="7wnWjVAu8Bd_MvjdbCye-13" target="7wnWjVAu8Bd_MvjdbCye-14">
          <mxGeometry width="50" height="50" relative="1" as="geometry">
            <mxPoint x="740" y="290" as="sourcePoint" />
            <mxPoint x="740" y="356" as="targetPoint" />
          </mxGeometry>
        </mxCell>
        <mxCell id="7wnWjVAu8Bd_MvjdbCye-31" value="" style="endArrow=classic;html=1;rounded=0;dashed=1;entryX=1;entryY=0;entryDx=0;entryDy=0;exitX=0.646;exitY=0.95;exitDx=0;exitDy=0;exitPerimeter=0;" edge="1" parent="1" source="7wnWjVAu8Bd_MvjdbCye-5" target="7wnWjVAu8Bd_MvjdbCye-10">
          <mxGeometry width="50" height="50" relative="1" as="geometry">
            <mxPoint x="890" y="180" as="sourcePoint" />
            <mxPoint x="780" y="396" as="targetPoint" />
          </mxGeometry>
        </mxCell>
        <mxCell id="7wnWjVAu8Bd_MvjdbCye-32" value="" style="endArrow=classic;html=1;rounded=0;dashed=1;" edge="1" parent="1" source="7wnWjVAu8Bd_MvjdbCye-5" target="7wnWjVAu8Bd_MvjdbCye-9">
          <mxGeometry width="50" height="50" relative="1" as="geometry">
            <mxPoint x="920" y="270" as="sourcePoint" />
            <mxPoint x="920" y="336" as="targetPoint" />
          </mxGeometry>
        </mxCell>
        <mxCell id="7wnWjVAu8Bd_MvjdbCye-33" value="API" style="rounded=0;whiteSpace=wrap;fillColor=#b3e5fc;" vertex="1" parent="1">
          <mxGeometry x="-40" y="520" width="940" height="40" as="geometry" />
        </mxCell>
        <mxCell id="7wnWjVAu8Bd_MvjdbCye-34" value="Meetings Application" style="rounded=0;whiteSpace=wrap;fillColor=#cccccc;" vertex="1" parent="1">
          <mxGeometry x="40" y="650" width="220" height="80" as="geometry" />
        </mxCell>
        <mxCell id="7wnWjVAu8Bd_MvjdbCye-35" value="Meetings Integration Events" style="rounded=0;whiteSpace=wrap;fillColor=#f8bbd0;" vertex="1" parent="1">
          <mxGeometry x="110" y="830" width="160" height="80" as="geometry" />
        </mxCell>
        <mxCell id="7wnWjVAu8Bd_MvjdbCye-36" value="Meetings Infrastructure" style="rounded=0;whiteSpace=wrap;fillColor=#c8e6c9;" vertex="1" parent="1">
          <mxGeometry x="-220" y="630" width="180" height="450" as="geometry" />
        </mxCell>
        <mxCell id="7wnWjVAu8Bd_MvjdbCye-37" value="Meetings Domain" style="rounded=0;whiteSpace=wrap;fillColor=#ffe0b2;" vertex="1" parent="1">
          <mxGeometry x="20" y="920" width="100" height="80" as="geometry" />
        </mxCell>
        <mxCell id="7wnWjVAu8Bd_MvjdbCye-38" value="Meetings Data" style="rounded=0;whiteSpace=wrap;fillColor=#ffcdd2;" vertex="1" parent="1">
          <mxGeometry x="-115" y="1190" width="120" height="80" as="geometry" />
        </mxCell>
        <mxCell id="7wnWjVAu8Bd_MvjdbCye-39" value="In Memory Events Bus" style="rounded=0;whiteSpace=wrap;fillColor=#d1c4e9;" vertex="1" parent="1">
          <mxGeometry x="-240" y="1340" width="1280" height="50" as="geometry" />
        </mxCell>
        <mxCell id="7wnWjVAu8Bd_MvjdbCye-40" value="&lt;strong data-end=&quot;445&quot; data-start=&quot;427&quot;&gt;Administration&lt;/strong&gt;" style="text;html=1;align=center;verticalAlign=middle;resizable=0;points=[];autosize=1;strokeColor=none;fillColor=none;" vertex="1" parent="1">
          <mxGeometry x="900" y="600" width="110" height="30" as="geometry" />
        </mxCell>
        <mxCell id="7wnWjVAu8Bd_MvjdbCye-41" value="Administration Application" style="rounded=0;whiteSpace=wrap;fillColor=#cccccc;" vertex="1" parent="1">
          <mxGeometry x="530" y="650" width="220" height="80" as="geometry" />
        </mxCell>
        <mxCell id="7wnWjVAu8Bd_MvjdbCye-42" value="Administration Integration Events" style="rounded=0;whiteSpace=wrap;fillColor=#f8bbd0;" vertex="1" parent="1">
          <mxGeometry x="555" y="770" width="170" height="80" as="geometry" />
        </mxCell>
        <mxCell id="7wnWjVAu8Bd_MvjdbCye-43" value="Administration Infrastructure" style="rounded=0;whiteSpace=wrap;fillColor=#c8e6c9;" vertex="1" parent="1">
          <mxGeometry x="830" y="640" width="180" height="440" as="geometry" />
        </mxCell>
        <mxCell id="7wnWjVAu8Bd_MvjdbCye-44" value="Administration Domain" style="rounded=0;whiteSpace=wrap;fillColor=#ffe0b2;" vertex="1" parent="1">
          <mxGeometry x="650" y="930" width="120" height="80" as="geometry" />
        </mxCell>
        <mxCell id="7wnWjVAu8Bd_MvjdbCye-45" value="Administration Data" style="rounded=0;whiteSpace=wrap;fillColor=#ffcdd2;" vertex="1" parent="1">
          <mxGeometry x="810" y="1190" width="120" height="80" as="geometry" />
        </mxCell>
        <mxCell id="7wnWjVAu8Bd_MvjdbCye-50" value="Meetings" style="text;html=1;align=center;verticalAlign=middle;whiteSpace=wrap;rounded=0;" vertex="1" parent="1">
          <mxGeometry x="-220" y="598" width="60" height="30" as="geometry" />
        </mxCell>
        <mxCell id="7wnWjVAu8Bd_MvjdbCye-51" value="" style="endArrow=classic;html=1;rounded=0;dashed=1;exitX=0;exitY=1;exitDx=0;exitDy=0;entryX=0.849;entryY=-0.01;entryDx=0;entryDy=0;entryPerimeter=0;" edge="1" parent="1" source="7wnWjVAu8Bd_MvjdbCye-33" target="7wnWjVAu8Bd_MvjdbCye-36">
          <mxGeometry width="50" height="50" relative="1" as="geometry">
            <mxPoint x="110" y="420" as="sourcePoint" />
            <mxPoint x="214" y="643" as="targetPoint" />
          </mxGeometry>
        </mxCell>
        <mxCell id="7wnWjVAu8Bd_MvjdbCye-52" value="" style="endArrow=classic;html=1;rounded=0;dashed=1;entryX=0.691;entryY=-0.037;entryDx=0;entryDy=0;entryPerimeter=0;exitX=0.245;exitY=1;exitDx=0;exitDy=0;exitPerimeter=0;" edge="1" parent="1" source="7wnWjVAu8Bd_MvjdbCye-33" target="7wnWjVAu8Bd_MvjdbCye-34">
          <mxGeometry width="50" height="50" relative="1" as="geometry">
            <mxPoint x="190" y="570" as="sourcePoint" />
            <mxPoint x="224" y="863" as="targetPoint" />
          </mxGeometry>
        </mxCell>
        <mxCell id="7wnWjVAu8Bd_MvjdbCye-53" value="" style="endArrow=classic;html=1;rounded=0;dashed=1;exitX=0.714;exitY=1.042;exitDx=0;exitDy=0;exitPerimeter=0;entryX=0.466;entryY=0.002;entryDx=0;entryDy=0;entryPerimeter=0;" edge="1" parent="1" source="7wnWjVAu8Bd_MvjdbCye-33" target="7wnWjVAu8Bd_MvjdbCye-41">
          <mxGeometry width="50" height="50" relative="1" as="geometry">
            <mxPoint x="1020" y="700" as="sourcePoint" />
            <mxPoint x="1124" y="923" as="targetPoint" />
          </mxGeometry>
        </mxCell>
        <mxCell id="7wnWjVAu8Bd_MvjdbCye-54" value="" style="endArrow=classic;html=1;rounded=0;dashed=1;exitX=0.95;exitY=0.988;exitDx=0;exitDy=0;exitPerimeter=0;entryX=0.136;entryY=0.008;entryDx=0;entryDy=0;entryPerimeter=0;" edge="1" parent="1" source="7wnWjVAu8Bd_MvjdbCye-33" target="7wnWjVAu8Bd_MvjdbCye-43">
          <mxGeometry width="50" height="50" relative="1" as="geometry">
            <mxPoint x="810" y="620" as="sourcePoint" />
            <mxPoint x="914" y="843" as="targetPoint" />
          </mxGeometry>
        </mxCell>
        <mxCell id="7wnWjVAu8Bd_MvjdbCye-55" value="" style="endArrow=classic;html=1;rounded=0;dashed=1;entryX=0;entryY=0.5;entryDx=0;entryDy=0;" edge="1" parent="1" target="7wnWjVAu8Bd_MvjdbCye-34">
          <mxGeometry width="50" height="50" relative="1" as="geometry">
            <mxPoint x="-40" y="690" as="sourcePoint" />
            <mxPoint x="524" y="883" as="targetPoint" />
            <Array as="points">
              <mxPoint y="690" />
            </Array>
          </mxGeometry>
        </mxCell>
        <mxCell id="7wnWjVAu8Bd_MvjdbCye-56" value="" style="endArrow=classic;html=1;rounded=0;dashed=1;exitX=-0.019;exitY=0.134;exitDx=0;exitDy=0;exitPerimeter=0;" edge="1" parent="1" source="7wnWjVAu8Bd_MvjdbCye-43" target="7wnWjVAu8Bd_MvjdbCye-41">
          <mxGeometry width="50" height="50" relative="1" as="geometry">
            <mxPoint x="570" y="720" as="sourcePoint" />
            <mxPoint x="674" y="943" as="targetPoint" />
          </mxGeometry>
        </mxCell>
        <mxCell id="7wnWjVAu8Bd_MvjdbCye-57" value="" style="endArrow=classic;html=1;rounded=0;dashed=1;exitX=0.114;exitY=0.962;exitDx=0;exitDy=0;exitPerimeter=0;" edge="1" parent="1" source="7wnWjVAu8Bd_MvjdbCye-34">
          <mxGeometry width="50" height="50" relative="1" as="geometry">
            <mxPoint x="180" y="930" as="sourcePoint" />
            <mxPoint x="65" y="920" as="targetPoint" />
          </mxGeometry>
        </mxCell>
        <mxCell id="7wnWjVAu8Bd_MvjdbCye-58" value="" style="endArrow=classic;html=1;rounded=0;dashed=1;exitX=1.003;exitY=0.768;exitDx=0;exitDy=0;exitPerimeter=0;entryX=-0.04;entryY=0.668;entryDx=0;entryDy=0;entryPerimeter=0;" edge="1" parent="1" source="7wnWjVAu8Bd_MvjdbCye-36" target="7wnWjVAu8Bd_MvjdbCye-37">
          <mxGeometry width="50" height="50" relative="1" as="geometry">
            <mxPoint x="50" y="920" as="sourcePoint" />
            <mxPoint x="154" y="1143" as="targetPoint" />
          </mxGeometry>
        </mxCell>
        <mxCell id="7wnWjVAu8Bd_MvjdbCye-59" value="" style="endArrow=classic;html=1;rounded=0;dashed=1;exitX=0.75;exitY=1;exitDx=0;exitDy=0;entryX=0.25;entryY=0;entryDx=0;entryDy=0;" edge="1" parent="1" source="7wnWjVAu8Bd_MvjdbCye-36" target="7wnWjVAu8Bd_MvjdbCye-38">
          <mxGeometry width="50" height="50" relative="1" as="geometry">
            <mxPoint x="320" y="1200" as="sourcePoint" />
            <mxPoint x="424" y="1423" as="targetPoint" />
          </mxGeometry>
        </mxCell>
        <mxCell id="7wnWjVAu8Bd_MvjdbCye-60" value="" style="endArrow=classic;html=1;rounded=0;dashed=1;exitX=0.25;exitY=1;exitDx=0;exitDy=0;entryX=0.048;entryY=-0.015;entryDx=0;entryDy=0;entryPerimeter=0;" edge="1" parent="1" source="7wnWjVAu8Bd_MvjdbCye-36" target="7wnWjVAu8Bd_MvjdbCye-39">
          <mxGeometry width="50" height="50" relative="1" as="geometry">
            <mxPoint x="40" y="1280" as="sourcePoint" />
            <mxPoint x="-175" y="1330" as="targetPoint" />
          </mxGeometry>
        </mxCell>
        <mxCell id="7wnWjVAu8Bd_MvjdbCye-61" value="" style="endArrow=classic;html=1;rounded=0;dashed=1;exitX=0.667;exitY=0.989;exitDx=0;exitDy=0;exitPerimeter=0;" edge="1" parent="1" source="7wnWjVAu8Bd_MvjdbCye-34" target="7wnWjVAu8Bd_MvjdbCye-35">
          <mxGeometry width="50" height="50" relative="1" as="geometry">
            <mxPoint x="270" y="730" as="sourcePoint" />
            <mxPoint x="374" y="953" as="targetPoint" />
          </mxGeometry>
        </mxCell>
        <mxCell id="7wnWjVAu8Bd_MvjdbCye-62" value="" style="endArrow=classic;html=1;rounded=0;dashed=1;exitX=0.899;exitY=1.003;exitDx=0;exitDy=0;exitPerimeter=0;" edge="1" parent="1" source="7wnWjVAu8Bd_MvjdbCye-34" target="7wnWjVAu8Bd_MvjdbCye-42">
          <mxGeometry width="50" height="50" relative="1" as="geometry">
            <mxPoint x="410" y="760" as="sourcePoint" />
            <mxPoint x="520" y="800" as="targetPoint" />
            <Array as="points">
              <mxPoint x="240" y="810" />
            </Array>
          </mxGeometry>
        </mxCell>
        <mxCell id="7wnWjVAu8Bd_MvjdbCye-63" value="" style="endArrow=classic;html=1;rounded=0;dashed=1;exitX=0.078;exitY=0.976;exitDx=0;exitDy=0;exitPerimeter=0;entryX=0.686;entryY=0.046;entryDx=0;entryDy=0;entryPerimeter=0;" edge="1" parent="1" source="7wnWjVAu8Bd_MvjdbCye-41" target="7wnWjVAu8Bd_MvjdbCye-35">
          <mxGeometry width="50" height="50" relative="1" as="geometry">
            <mxPoint x="550" y="790" as="sourcePoint" />
            <mxPoint x="290" y="760" as="targetPoint" />
            <Array as="points">
              <mxPoint x="310" y="760" />
            </Array>
          </mxGeometry>
        </mxCell>
        <mxCell id="7wnWjVAu8Bd_MvjdbCye-64" value="" style="endArrow=classic;html=1;rounded=0;dashed=1;exitX=0.859;exitY=0.995;exitDx=0;exitDy=0;exitPerimeter=0;entryX=0.96;entryY=-0.015;entryDx=0;entryDy=0;entryPerimeter=0;" edge="1" parent="1" source="7wnWjVAu8Bd_MvjdbCye-43" target="7wnWjVAu8Bd_MvjdbCye-39">
          <mxGeometry width="50" height="50" relative="1" as="geometry">
            <mxPoint x="690" y="1210" as="sourcePoint" />
            <mxPoint x="794" y="1433" as="targetPoint" />
          </mxGeometry>
        </mxCell>
        <mxCell id="7wnWjVAu8Bd_MvjdbCye-65" value="" style="endArrow=classic;html=1;rounded=0;dashed=1;exitX=0.25;exitY=1;exitDx=0;exitDy=0;" edge="1" parent="1" source="7wnWjVAu8Bd_MvjdbCye-43" target="7wnWjVAu8Bd_MvjdbCye-45">
          <mxGeometry width="50" height="50" relative="1" as="geometry">
            <mxPoint x="1050" y="1280" as="sourcePoint" />
            <mxPoint x="1154" y="1503" as="targetPoint" />
          </mxGeometry>
        </mxCell>
        <mxCell id="7wnWjVAu8Bd_MvjdbCye-66" value="" style="endArrow=classic;html=1;rounded=0;dashed=1;exitX=0;exitY=0.75;exitDx=0;exitDy=0;entryX=1;entryY=0.5;entryDx=0;entryDy=0;" edge="1" parent="1" source="7wnWjVAu8Bd_MvjdbCye-43" target="7wnWjVAu8Bd_MvjdbCye-44">
          <mxGeometry width="50" height="50" relative="1" as="geometry">
            <mxPoint x="970" y="1000" as="sourcePoint" />
            <mxPoint x="1074" y="1223" as="targetPoint" />
          </mxGeometry>
        </mxCell>
        <mxCell id="7wnWjVAu8Bd_MvjdbCye-67" value="" style="endArrow=classic;html=1;rounded=0;dashed=1;exitX=0.956;exitY=0.989;exitDx=0;exitDy=0;exitPerimeter=0;entryX=0.814;entryY=0.036;entryDx=0;entryDy=0;entryPerimeter=0;" edge="1" parent="1" source="7wnWjVAu8Bd_MvjdbCye-41" target="7wnWjVAu8Bd_MvjdbCye-44">
          <mxGeometry width="50" height="50" relative="1" as="geometry">
            <mxPoint x="890" y="730" as="sourcePoint" />
            <mxPoint x="994" y="953" as="targetPoint" />
          </mxGeometry>
        </mxCell>
        <mxCell id="7wnWjVAu8Bd_MvjdbCye-68" value="" style="endArrow=classic;html=1;rounded=0;dashed=1;exitX=0.5;exitY=1;exitDx=0;exitDy=0;" edge="1" parent="1" source="7wnWjVAu8Bd_MvjdbCye-41" target="7wnWjVAu8Bd_MvjdbCye-42">
          <mxGeometry width="50" height="50" relative="1" as="geometry">
            <mxPoint x="740" y="740" as="sourcePoint" />
            <mxPoint x="844" y="963" as="targetPoint" />
          </mxGeometry>
        </mxCell>
      </root>
    </mxGraphModel>
  </diagram>
</mxfile>
